<svg xmlns="http://www.w3.org/2000/svg" viewBox="0 0 200 200" height="138" width="138" class="icon-icon-0" id="icon-0">
  <style>
    .fill-accent {
      fill: #A5D396;
      ;
    }
  </style>
  <circle cx="32" cy="29" r="1" class="fill-accent" />
  <path
    d="M37.31 30H35a1 1 0 0 1 0-2h2.31a0.65 0.65 0 0 0 0.56-0.37 1 1 0 0 0 0-1l-2.78-4.08a1 1 0 0 1 1.66-1.12l2.8 4.12a3 3 0 0 1 0.08 3.05 2.65 2.65 0 0 1-2.32 1.4M29 35h-2a5 5 0 0 1-4-8h-2a1 1 0 0 1 0-2h6a1 1 0 0 1 0 2 3 3 0 0 0 0 6h2a1 1 0 0 1 0 2"
    class="fill-accent" />
  <circle cx="28" cy="30" r="1" class="fill-accent" />
  <path
    d="M30 4a23 23 0 1 0 23 23A23 23 0 0 0 30 4m0 41a18 18 0 1 1 18-18 18 18 0 0 1-18 18M52.45 38A22.7 22.7 0 0 1 49 46v-2.77A24.7 24.7 0 0 0 52.45 38M47 45.32v3.17A23.4 23.4 0 0 1 43 52v-3.64a24.7 24.7 0 0 0 4-3.04M41 49.45v3.75a22.6 22.6 0 0 1-4 1.73V51a25 25 0 0 0 4-1.55"
    class="fill-accent" />
  <path
    d="M35 51.52v3.95a23 23 0 0 1-4 0.53v-4a25 25 0 0 0 4-0.48M29 52v4a23 23 0 0 1-4-0.51v-3.97a25 25 0 0 0 4 0.48M23 51v3.91a22.6 22.6 0 0 1-4-1.73v-3.73A25 25 0 0 0 23 51M17 48.36V52a23.4 23.4 0 0 1-4-3.49v-3.19a24.7 24.7 0 0 0 4 3.04M11 43.23V46a22.7 22.7 0 0 1-3.45-8A24.7 24.7 0 0 0 11 43.23"
    class="fill-accent" />
</svg>